<svg width="96.705" height="34.243" viewBox="0 0 96.705 34.243" fill="none" xmlns="http://www.w3.org/2000/svg"><path d="m61.807 30.28 -1.537 3.69q-0.041 0.109 -0.123 0.171a0.301 0.301 0 0 1 -0.185 0.062q-0.15 0 -0.225 -0.082a0.358 0.358 0 0 1 -0.082 -0.219q0 -0.048 0.021 -0.109l1.736 -4.196q0.048 -0.116 0.137 -0.178 0.095 -0.062 0.205 -0.055 0.103 0 0.192 0.062 0.089 0.062 0.13 0.171l1.715 4.134q0.027 0.068 0.027 0.137 0 0.15 -0.102 0.246a0.317 0.317 0 0 1 -0.219 0.089q-0.103 0 -0.192 -0.062a0.425 0.425 0 0 1 -0.123 -0.171l-1.551 -3.669zm-1.264 2.72 0.308 -0.656h1.934l0.116 0.656z" fill="black"/><path d="M53.051 34.243a2.537 2.537 0 0 1 -0.97 -0.185 2.537 2.537 0 0 1 -0.793 -0.526 2.568 2.568 0 0 1 -0.526 -0.786q-0.192 -0.444 -0.192 -0.963 0 -0.519 0.192 -0.964a2.473 2.473 0 0 1 0.526 -0.779 2.378 2.378 0 0 1 0.793 -0.526 2.457 2.457 0 0 1 0.97 -0.191q0.335 0 0.649 0.075 0.314 0.075 0.567 0.219 0.089 0.048 0.13 0.13a0.317 0.317 0 0 1 0.041 0.15q0 0.144 -0.096 0.253a0.285 0.285 0 0 1 -0.225 0.102 0.425 0.425 0 0 1 -0.191 -0.048 1.744 1.744 0 0 0 -0.41 -0.144 1.902 1.902 0 0 0 -0.465 -0.055q-0.492 0 -0.888 0.239a1.712 1.712 0 0 0 -0.629 0.636q-0.225 0.403 -0.225 0.902 0 0.492 0.225 0.902a1.776 1.776 0 0 0 0.629 0.642q0.396 0.232 0.888 0.232 0.239 0 0.506 -0.055a1.902 1.902 0 0 0 0.451 -0.157l-0.055 0.185v-1.298l0.109 0.096h-0.895q-0.151 0 -0.253 -0.096 -0.096 -0.096 -0.096 -0.246t0.096 -0.246q0.102 -0.095 0.253 -0.095h1.182q0.144 0 0.239 0.102 0.103 0.096 0.103 0.246v1.517q0 0.109 -0.055 0.185a0.539 0.539 0 0 1 -0.123 0.123 2.917 2.917 0 0 1 -0.683 0.308 2.568 2.568 0 0 1 -0.779 0.116" fill="black"/><path d="M45.482 31.783a2.727 2.727 0 0 1 -0.171 0.97 2.378 2.378 0 0 1 -0.485 0.779 2.219 2.219 0 0 1 -0.731 0.526q-0.424 0.185 -0.929 0.185 -0.499 0 -0.922 -0.185a2.315 2.315 0 0 1 -0.738 -0.526 2.441 2.441 0 0 1 -0.478 -0.779 2.822 2.822 0 0 1 -0.164 -0.97q0 -0.519 0.164 -0.964a2.41 2.41 0 0 1 0.478 -0.786 2.219 2.219 0 0 1 0.738 -0.519q0.424 -0.191 0.922 -0.191 0.505 0 0.929 0.191 0.424 0.185 0.731 0.519a2.346 2.346 0 0 1 0.485 0.786q0.171 0.444 0.171 0.964m-0.738 0q0 -0.506 -0.205 -0.909 -0.198 -0.403 -0.554 -0.635t-0.82 -0.232q-0.458 0 -0.813 0.232t-0.554 0.635q-0.198 0.396 -0.198 0.909 0 0.505 0.198 0.909 0.198 0.403 0.554 0.635 0.355 0.232 0.813 0.232 0.465 0 0.82 -0.232 0.355 -0.232 0.554 -0.635 0.205 -0.403 0.205 -0.909" fill="black"/><path d="M35.788 29.371q0.13 0 0.232 0.102 0.109 0.096 0.109 0.246 0 0.055 -0.02 0.109a0.412 0.412 0 0 1 -0.048 0.102l-1.565 2.214 0.109 -0.403v2.084q0 0.15 -0.102 0.253 -0.102 0.095 -0.232 0.095 -0.143 0 -0.246 -0.095a0.355 0.355 0 0 1 -0.096 -0.253v-2.029l0.048 0.198 -1.51 -2.016a0.507 0.507 0 0 1 -0.075 -0.137 0.444 0.444 0 0 1 -0.021 -0.13q0 -0.15 0.116 -0.246 0.123 -0.096 0.246 -0.096 0.164 0 0.28 0.157l1.367 1.872 -0.164 -0.021 1.285 -1.845q0.116 -0.164 0.287 -0.164" fill="black"/><path d="M89.665 6.808q1.728 0 3.158 0.299 1.429 0.277 2.389 0.64 0.981 0.362 1.259 0.597l-2.112 3.819q-0.405 -0.299 -1.515 -0.768 -1.088 -0.469 -2.432 -0.469 -1.024 0 -1.728 0.32 -0.704 0.298 -0.704 0.96 0 0.661 0.768 1.067 0.789 0.384 2.261 0.683 1.28 0.256 2.603 0.811 1.323 0.555 2.198 1.642Q96.705 17.476 96.705 19.268q0 1.835 -0.789 3.03t-2.091 1.856q-1.301 0.661 -2.816 0.918 -1.515 0.277 -2.944 0.277 -2.005 0 -3.499 -0.362 -1.472 -0.363 -2.389 -0.832t-1.28 -0.747l2.091 -4.267q0.555 0.469 1.813 1.067 1.259 0.576 2.667 0.576 1.366 0 2.112 -0.406t0.747 -1.067q0 -0.533 -0.363 -0.853 -0.363 -0.32 -1.024 -0.555t-1.6 -0.427q-0.854 -0.171 -1.814 -0.533a7.736 7.736 0 0 1 -1.813 -0.981q-0.854 -0.64 -1.387 -1.6 -0.534 -0.96 -0.533 -2.325 0 -1.75 1.131 -2.901 1.131 -1.153 2.923 -1.728 1.792 -0.598 3.819 -0.598" fill="black"/><path d="M72.528 25.348q-2.88 0 -5.12 -1.173 -2.219 -1.195 -3.499 -3.265 -1.259 -2.091 -1.259 -4.779t1.259 -4.779q1.28 -2.112 3.499 -3.328 2.24 -1.216 5.12 -1.216t5.077 1.216q2.198 1.216 3.435 3.328 1.238 2.091 1.238 4.779t-1.238 4.779q-1.238 2.07 -3.435 3.265 -2.197 1.173 -5.077 1.173m0 -5.333q1.109 0 1.92 -0.491t1.259 -1.387 0.448 -2.027q0 -1.152 -0.448 -2.048t-1.259 -1.408 -1.92 -0.512q-1.11 0 -1.941 0.512 -0.811 0.512 -1.28 1.408 -0.448 0.896 -0.448 2.048 0 1.131 0.448 2.027 0.469 0.896 1.28 1.387 0.832 0.491 1.941 0.491" fill="black"/><path d="M56.952 6.808q1.984 0 3.499 0.832 1.515 0.811 2.368 2.518 0.875 1.707 0.875 4.395V24.836h-6.379V15.534q0 -1.835 -0.555 -2.966t-2.197 -1.131q-0.982 0 -1.728 0.512t-1.152 1.429q-0.406 0.896 -0.406 2.155v9.302h-5.952V15.534q0 -1.835 -0.619 -2.966 -0.598 -1.131 -2.134 -1.131 -0.982 0 -1.728 0.512 -0.747 0.491 -1.152 1.408 -0.384 0.896 -0.384 2.176v9.302h-6.443V7.32h6.443v2.496q0.256 -0.661 1.109 -1.344 0.874 -0.704 2.155 -1.173 1.28 -0.491 2.709 -0.491 1.557 0 2.603 0.469 1.045 0.448 1.707 1.216a6.563 6.563 0 0 1 1.088 1.664q0.299 -0.768 1.173 -1.536 0.896 -0.789 2.219 -1.302 1.344 -0.512 2.88 -0.512" fill="black"/><path d="M19.711 7.32h2.987V0.13H29.119v7.19h3.926V12.654h-3.925v4.886q0 1.088 0.32 1.77 0.32 0.661 1.173 0.661 0.576 0 0.982 -0.256 0.405 -0.256 0.491 -0.341l2.219 4.608q-0.149 0.128 -0.939 0.469 -0.768 0.341 -1.963 0.619 -1.195 0.277 -2.667 0.277 -2.624 0 -4.331 -1.472 -1.706 -1.493 -1.706 -4.587V12.654h-2.987z" fill="black"/><path d="M14.55 24.836v-2.837q-0.192 0.426 -0.981 1.238 -0.768 0.81 -2.048 1.472 -1.28 0.64 -2.987 0.64 -2.56 0 -4.48 -1.237 -1.92 -1.259 -2.987 -3.35Q-0.001 18.649 0 16.089t1.067 -4.651q1.067 -2.112 2.987 -3.37 1.92 -1.259 4.48 -1.259 1.643 0 2.88 0.533 1.238 0.512 2.005 1.238 0.768 0.704 1.067 1.302v-2.56H20.929v17.516zM6.358 16.089q0 1.195 0.555 2.155 0.555 0.939 1.472 1.472 0.939 0.534 2.069 0.534 1.173 0 2.069 -0.534 0.896 -0.533 1.408 -1.472 0.533 -0.96 0.533 -2.155t-0.533 -2.133q-0.512 -0.96 -1.408 -1.493 -0.896 -0.555 -2.069 -0.555 -1.131 0 -2.069 0.555 -0.917 0.533 -1.472 1.493 -0.555 0.939 -0.555 2.133" fill="black"/></svg>